<svg version="1.1" id="Capa_1" xmlns="http://www.w3.org/2000/svg" xmlns:xlink="http://www.w3.org/1999/xlink" x="0px" y="0px" viewBox="0 0 322.688 322.688" style="enable-background:new 0 0 322.688 322.688;" xml:space="preserve"><g><path d="M322.688,136.465c-1.702-1.12-4.51-2.411-6.647-2.494c-2.403-0.093-4.729,0.44-7.074,1.833 c-2.919,1.734-3.321,1.659-5.458,4.368c-2.349,2.978-5.155,5.594-7.262,7.833c-4.31,0.62-7.857,1.102-11.393,1.665 c-0.604,0.096-1.135,0.589-1.733,0.804c-3.752,1.347-6.406,4.103-8.271,7.376c-1.039,1.824-2.539,2.758-4.086,3.062 c-2.195,0.431-4.574,0.112-6.854-0.111c-3.199-0.313-6.37-1.087-9.567-1.175c-2.209-0.061-4.435,0.735-6.661,1.097 c-4.67,0.758-8.812,2.792-12.925,5.021c-3.325,1.802-6.282,4.13-10.218,5.072c-3.401,0.813-6.3,0.919-9.383-0.534 c-2.935-1.383-5.917-2.667-9.099-4.094c0.664-0.111,1.15-0.315,1.589-0.24c0.937,0.162,1.837,0.548,2.774,0.7 c2.105,0.343,4.321,1.441,6.122-0.629c-3.402-1.486-7.312-1.531-11.055-3.43c4.326-1.083,26.175-7.189,32.312-11.674 c1.496-1.092,2.548-2.952,3.449-4.647c0.707-1.329-0.525-3.069-2.066-3.262c-0.817-0.102-1.881-0.295-2.458,0.1 c-2.561,1.751-5.809,0.383-8.427,2.08c-0.918,0.595-2.501,0.164-3.779,0.202c2.086-1.54,4.277-2.41,6.51-3.159 c4.373-1.466,8.245-3.687,11.341-7.166c2.339-2.628,2.355-2.775-0.069-5.255c-0.341-0.349-0.775-0.606-1.452-1.124 c-3.766,0.519-7.736,1.067-12.812,1.767c3.05-1.896,5-3.256,7.083-4.37c3.494-1.869,5.923-4.437,6.338-8.683 c-2.17-1.132-4.073-2.984-6.95-2.472c3.231-2.476,6.124-4.92,9.25-7.017c2.555-1.713,3.731-4.31,5.174-6.768 c0.477-0.813,0.689-1.782,1.021-2.67c-0.583-0.96-1.15-1.895-1.769-2.915c-1.748,0.051-3.387,0.099-5.278,0.155 c0.411-0.614,0.622-1.004,0.902-1.336c2.901-3.435,5.723-6.945,8.765-10.252c1.503-1.634,0.917-3.639,1.349-5.408 c0.393-1.605-2.109-2.687-4.055-2.286c-2.782,0.573-5.049,2.02-7.258,3.692c-0.872,0.66-1.956,1.04-2.944,1.547 c1.6-3.54,3.125-6.979,5.679-9.275c3.397-3.054,4.517-7.274,6.979-10.751c1.63-2.302,0.144-3.764-1.207-4.694 c1.19-3.45,2.459-6.542,3.288-9.748c0.512-1.982-0.125-3.892-2.071-5.156c-2.056-1.336-3.687,0.129-4.809,1.153 c-3.744,3.419-8.158,5.984-11.571,9.871c-3.973,4.526-8.616,8.477-12.753,12.85c-3.834,4.052-8.827,6.541-12.68,10.588 c-0.064-0.724-0.002-1.394,0.36-1.783c2.749-2.947,3.649-6.743,4.769-10.406c1.035-3.387-0.577-5.123-4.027-4.529 c-0.518,0.089-0.978,0.513-1.708,0.916c-0.029-0.991-0.244-1.706-0.036-2.263c1.971-5.29,3.873-10.584,3.652-16.359 c1.303-1.508-0.298-2.809-0.68-3.881c-0.917-2.574-2.986-2.805-5.584-1.37c-1.496,0.827-2.448,1.885-3.152,3.528 c-1.53,3.57-3.431,6.982-5.423,10.94c-0.653-3.959,2.6-7.885-1.292-11.088c-1.667-0.335-3.297,0.155-4.42,1.897 c-1.491,2.312-3.112,4.558-4.396,6.981c-1.19,2.246-1.775,4.823-3.042,7.016c-3.465,6.005-6.126,12.451-10.122,18.167 c-2.03,2.904-3.717,6.046-5.718,8.971c-2.933,4.286-5.969,8.505-9.055,12.683c-0.767,1.038-1.196,2.126-2.978,2.691 c-2.295,0.727-4.185,3.034-5.994,4.907c-1.691,1.752-3.05,3.824-4.552,5.758c-0.789,1.017-1.57,2.04-2.19,2.847 c-1.716-0.585-3.573-1.217-5.942-2.024c2.367-0.217,4.242-0.388,7.051-0.646c-2.281-1.465-3.667-2.885-5.293-3.255 c-1.692-0.384-3.615,0.246-5.441,0.433c0.226-0.461,0.757-1.335,0.631-1.286c-0.127,0.048-1.745,0.744-2.5,1.387 c-0.871-0.972-1.92-2.143-3.135-3.499c2.725-0.507,5.183,2.051,7.795,0.174c0.722-1.131,1.107-2.96,2.245-3.515 c1.138-0.556,2.273,0.483,3.909,0.83c-2.228-2.74-4.733-2.782-8.092-3.142c2.883-0.946,2.454-4.378,5.432-4.201 c-0.224-0.504-0.453-1.436-0.671-1.433c-0.767,0.009-1.546,0.295-2.292,0.556c-1.354,0.474-2.701,1.46-4.026,1.418 c-2.629-0.084-5.241-0.721-7.988-1.149c1.029-3.457,3.927-2.879,6.07-3.54c0.306-0.094,0.979,1.005,1.443,1.509 c0.993-0.655,2.325-1.161,3.051-2.123c0.678-0.898,0.711-2.281,1.258-4.299c-1.441,1.371-3.217-0.534-4.021,1.889 c-0.169,0.511-1.658,0.887-2.485,0.803c-1.076-0.11-2.181-0.606-3.127-1.177c-2.098-1.268-3.721-0.752-5.225,0.983 c-0.981,1.131-1.978,2.279-3.131,3.219c-0.951,0.775-2.023,0.702-3.307-0.874c3.04-1.313,5.662-2.743,7.653-6.412 c-1.825,0.785-2.797,1.161-3.728,1.62c-0.565,0.279-1.458,1.065-1.539,0.98c-1.905-1.967-3.892,0.137-5.704,0.21 c-0.277-1.167-0.461-1.942-0.764-3.219c-0.763,1.287-1.193,2.303-1.885,3.088c-0.529,0.6-1.389,0.91-2.603,1.657 c-0.082-2.787-2.317-4.679-0.228-7.779c2.088-3.099-3.871,4.019-5.486,5.818c-1.513,1.686-2.016,4.453-5.086,4.559 c-0.048-1.637-0.679-2.038-0.148-5.045c0.531-3.007,1.822-3.422,2.991-4.818c-1.858,0.055-3.425,0.476-5.006,1.488 c-1.973,2.275-3.991,4.603-6.101,7.037c-3.119-0.039-6.574-0.252-9.382,1.554c-2.542,1.635-5.146,2.091-7.94,1.903 c-3.193-0.215-5.015,1.465-6.61,3.908c-0.726,1.111-1.039,2.07-0.288,3.138c0.873,1.241,2.045,1.603,3.427,0.742 c-1.035-0.015-2.219-0.949-1.057-2.359c2.276-0.067,4.164-0.122,6.234-0.183c-0.203,2.152-1.523,3.046-2.971,3.84 c-1.274,0.699-2.521,1.452-3.826,2.088c-4.13,2.012-8.116,4.182-11.007,7.944c-0.535,0.697-1.538,1.222-2.418,1.43 c-2.506,0.591-3.021,2.83-4.011,4.622c-0.784,1.419,0.247,2.4,1.19,3.423c0.484,0.526,0.646,1.459,0.72,2.23 c0.141,1.47,0.115,2.956,0.155,4.302c2.037,1.491,3.876,2.837,6.129,4.486c1.188-0.035,3.288-0.743,4.378,0.011 c2.062,1.424,3.219-0.097,4.336-0.828c1.333-0.873,2.191-2.47,2.652-3.026c3.307-0.827,5.644-1.397,7.971-2 c1.079-0.28,2.256-1.092,3.188-0.86c3.548,0.885,6.948-0.247,10.41-0.359c0.22-0.007,0.45,0.313,0.331,0.225 c-0.291,6.587-3.646,11.753-6.992,16.852c-3.096,4.718-5.63,9.71-7.422,15.003c-1.838,5.428-3.135,11.041-4.613,16.587 c-0.744,2.791-1.339,5.539-3.179,7.98c-2.593,3.443-3.594,7.507-3.263,11.857c0.098,1.291,0.085,2.59,0.133,4.218 c-3.283,0.096-6.251,0.087-9.204,0.292c-4.801,0.333-9.248-0.932-13.683-2.557c-2.231-0.818-4.61-1.642-6.93-1.664 c-1.587-0.017-3.193,1.335-4.78,2.096c-0.581,0.279-1.149,0.594-1.696,0.935c-1.618,1.008-2.954,2.062-4.148,3.806 c-2.87,4.19-6.086,8.359-9.963,11.571c-2.666,2.209-4.225,4.734-5.806,7.54c-0.766,1.361-1.783,2.717-3.012,3.642 c-1.088,0.819-2.627,1.041-4.079,1.566c1.003,4.599-3.53,8.064-2.247,12.673c6.911,0.114,12.745-1.409,16.289-7.736 c0.158-0.283,0.487-0.467,0.664-0.743c2.18-3.4,5.595-6.141,5.49-10.766c-0.019-0.848,0.702-1.834,1.321-2.549 c1.636-1.887,3.134-4.077,5.174-5.391c4.38-2.817,11.278-5.224,16.837-0.868c2.332,1.827,5.249,2.908,8.221,4.501 c-1.567,0.046-3.02,0.004-4.451,0.161c-0.936,0.103-1.955,0.308-2.74,0.787c-2.889,1.764-5.579,3.858-7.546,6.623 c-2.818,3.961-6.277,7.365-10.722,9.004c-3.519,1.297-6.038,3.333-7.757,6.301c-1.321,2.28-2.753,3.393-5.42,3.35 c-1.36-0.022-2.733,0.797-4.1,1.235c-0.577,4.094-4.667,5.868-6.156,9.352c-0.116,0.271,0.031,0.656,0.077,1.272 c1.986,0.701,4.042,1.581,6.182,2.137c1.807,0.469,3.493-0.93,5.157-0.971c3.304-0.081,5.592-1.552,7.581-3.895 c0.763-0.899,1.538-1.682,2.907-1.562c1.778,0.154,2.477-0.914,3.072-2.516c1.271-3.417,3.374-6.357,6.142-8.765 c0.971-0.846,2.282-1.387,3.045-2.369c3.1-3.996,7.473-5.486,12.121-6.532c0.778-0.175,1.777-0.789,2.289-0.505 c4.004,2.221,8.611,2.521,12.753,4.104c7.072,2.704,14.378,3.351,21.775,3.796c0.829,0.051,1.88-0.362,2.461,0.011 c2.682,1.719,4.645,0.354,6.485-1.344c0.965-0.89,1.841-1.128,3.099-0.788c3.596,0.97,7.218,1.738,11.004,1.48 c3.156-0.215,6.327-0.281,9.492-0.284c3.085-0.003,6.14-0.498,9.256,0.603c2.224,0.785,4.779,0.848,7.186,0.85 c4.997,0.005,9.993-0.239,14.99-0.396c0.989-0.031,2.066,0.1,2.95-0.241c6.558-2.527,13.589-3.52,20.06-6.378 c3.155-1.395,6.594-2.149,9.959-3.21c3.999,4.308,8.386,7.986,13.833,10.118c2.333,0.912,4.193,2.378,6.173,3.841 c2.7,1.994,5.666,4.228,8.824,4.88c7.055,1.455,14.05,3.536,21.358,3.583c0.616,0.004,1.336,0.16,1.828,0.504 c2.928,2.044,6.405,3.683,8.548,6.375c2.859,3.594,4.455,8.121,5.955,12.541c0.718,2.115,1.317,4.29,2.255,6.306 c1.349,2.902,3.418,4.777,6.808,5.673c2.997,0.792,6.287,1.498,8.602,4.144c0.915,1.046,2.376,2.1,3.679,2.226 c3.374,0.328,6.937-0.692,9.937,1.77c0.098,0.08,0.324,0.001,0.491-0.004c0.839-0.47,1.679-0.938,2.772-1.549 c-0.112-0.984,0-2.182-0.407-3.161c-1.046-2.514-2.489-4.865-3.466-7.4c-1.194-3.101-4.18-3.907-6.528-5.523 c-0.253-0.174-1.074,0.478-1.884,0.867c-0.613-0.66-1.291-1.396-1.975-2.125c-1.803-1.92-3.884-3.217-6.414-4.224 c-5.438-2.162-7.883-7.018-9.251-12.353c-0.622-2.424-0.597-5.014-0.899-7.858c1.741,1.319,3.434,2.345,4.806,3.697 c2.964,2.921,5.755,6.017,8.635,9.024c1.757,1.836,3.756,3.022,6.468,2.918c3.25-0.124,6.453-0.322,9.756,0.531 c2.394,0.619,5.099,0.356,7.267-1.961c1.587-1.696,3.951-2.664,5.869-3.894c0.399-1.879,0.044-3.513-1.609-4.409 c-4.373-2.371-8.69-5.023-13.861-4.52c-0.719,1.116-1.325,2.059-2.013,3.126c-2.319-2.783-5.376-3.125-8.693-2.922 c-2.585-2.902-5.361-5.533-7.538-8.591c-2.516-3.534-4.686-7.353-6.643-11.23c-0.895-1.772-2.32-2.153-3.78-2.494 c-1.254-0.292-2.976-0.47-3.917,0.159c-2.499,1.674-5.164,0.816-7.731,1.066c-2.594,0.253-5.218,0.191-8.012,0.273 c0.028-6.208-0.296-11.877-2.416-17.29c-0.263-0.67,0.029-1.609,0.208-2.392c0.803-3.501,0.719-4.946-0.291-8.57 c-0.602-2.16-0.491-4.71-1.633-6.483c-1.394-2.165-0.397-4.035-0.455-5.885c3.369-0.379,6.725-0.756,9.802-1.102 c2.364,2.039,4.551,4.176,6.995,5.959c2.227,1.624,4.895,1.763,7.484,0.863c1.192-0.414,2.252-1.217,3.501-1.915 c4.357,3.982,8.934,0.819,13.45,0.472c2.599-3.082,6.604-3.902,9.798-6.059c3.636-2.455,6.136-5.98,9.285-8.872 c1.422-1.305,2.952-2.671,4.689-3.403c1.887-0.796,4.063-0.937,6.127-1.276c6.078-1.002,11.419-5.676,12.034-11.627 c0.202-1.953-1.037-6.604-1.462-6.972C307.596,136.165,321.373,136.69,322.688,136.465z"/></g></svg>